<svg width="516" height="50" viewBox="0 0 516 50" fill="none" xmlns="http://www.w3.org/2000/svg">
<g filter="url(#filter0_d_8164_13432)">
<g clip-path="url(#clip0_8164_13432)">
<path d="M2.5 7C2.5 3.96244 4.96243 1.5 8 1.5H425.5V46.5H7.99999C4.96242 46.5 2.5 44.0376 2.5 41V7Z" fill="white"/>
<path d="M2.5 7C2.5 3.96244 4.96243 1.5 8 1.5H425.5V46.5H7.99999C4.96242 46.5 2.5 44.0376 2.5 41V7Z" stroke="#DAE0E6"/>
<path d="M19.321 29V18.0909H25.9048V19.2628H20.642V22.9489H25.5639V24.1207H20.642V27.8281H25.9901V29H19.321ZM29.2725 24.0781V29H28.0154V20.8182H29.2299V22.0966H29.3364C29.5282 21.6811 29.8194 21.3473 30.21 21.0952C30.6006 20.8395 31.1049 20.7116 31.7228 20.7116C32.2768 20.7116 32.7615 20.8253 33.177 21.0526C33.5925 21.2763 33.9156 21.6172 34.1464 22.0753C34.3773 22.5298 34.4927 23.1051 34.4927 23.8011V29H33.2356V23.8864C33.2356 23.2436 33.0687 22.7429 32.7349 22.3842C32.4011 22.022 31.943 21.8409 31.3606 21.8409C30.9593 21.8409 30.6006 21.9279 30.2846 22.1019C29.9721 22.2759 29.7253 22.5298 29.5442 22.8636C29.3631 23.1974 29.2725 23.6023 29.2725 24.0781ZM40.2481 20.8182V21.8835H36.008V20.8182H40.2481ZM37.2438 18.858H38.5009V26.6562C38.5009 27.0114 38.5524 27.2777 38.6554 27.4553C38.7619 27.6293 38.8969 27.7464 39.0602 27.8068C39.2271 27.8636 39.4029 27.892 39.5876 27.892C39.726 27.892 39.8397 27.8849 39.9285 27.8707C40.0172 27.853 40.0883 27.8388 40.1415 27.8281L40.3972 28.9574C40.312 28.9893 40.193 29.0213 40.0403 29.0533C39.8876 29.0888 39.6941 29.1065 39.4597 29.1065C39.1046 29.1065 38.7566 29.0302 38.4157 28.8775C38.0783 28.7248 37.7978 28.4922 37.5741 28.1797C37.3539 27.8672 37.2438 27.473 37.2438 26.9972V18.858ZM45.3816 29.1705C44.5932 29.1705 43.9132 28.9964 43.3414 28.6484C42.7732 28.2969 42.3347 27.8068 42.0257 27.1783C41.7203 26.5462 41.5676 25.8111 41.5676 24.973C41.5676 24.1349 41.7203 23.3963 42.0257 22.7571C42.3347 22.1143 42.7644 21.6136 43.3148 21.255C43.8688 20.8928 44.5151 20.7116 45.2537 20.7116C45.6798 20.7116 46.1007 20.7827 46.5161 20.9247C46.9316 21.0668 47.3098 21.2976 47.6507 21.6172C47.9916 21.9332 48.2633 22.3523 48.4657 22.8743C48.6681 23.3963 48.7693 24.0391 48.7693 24.8026V25.3352H42.4625V24.2486H47.4909C47.4909 23.7869 47.3986 23.375 47.2139 23.0128C47.0328 22.6506 46.7736 22.3647 46.4362 22.1552C46.1024 21.9457 45.7083 21.8409 45.2537 21.8409C44.753 21.8409 44.3198 21.9652 43.954 22.2138C43.5918 22.4588 43.313 22.7784 43.1177 23.1726C42.9224 23.5668 42.8247 23.9893 42.8247 24.4403V25.1648C42.8247 25.7827 42.9313 26.3065 43.1443 26.7362C43.361 27.1623 43.661 27.4872 44.0445 27.7109C44.4281 27.9311 44.8737 28.0412 45.3816 28.0412C45.7118 28.0412 46.0101 27.995 46.2764 27.9027C46.5463 27.8068 46.7789 27.6648 46.9742 27.4766C47.1695 27.2848 47.3205 27.0469 47.427 26.7628L48.6415 27.1037C48.5137 27.5156 48.2988 27.8778 47.997 28.1903C47.6951 28.4993 47.3222 28.7408 46.8784 28.9148C46.4345 29.0852 45.9355 29.1705 45.3816 29.1705ZM50.5816 29V20.8182H51.7961V22.054H51.8813C52.0305 21.6491 52.3004 21.3207 52.691 21.0685C53.0816 20.8164 53.522 20.6903 54.012 20.6903C54.1044 20.6903 54.2198 20.6921 54.3583 20.6957C54.4968 20.6992 54.6015 20.7045 54.6725 20.7116V21.9901C54.6299 21.9794 54.5323 21.9634 54.3796 21.9421C54.2304 21.9173 54.0724 21.9048 53.9055 21.9048C53.5078 21.9048 53.1526 21.9883 52.8401 22.1552C52.5312 22.3185 52.2862 22.5458 52.1051 22.837C51.9275 23.1246 51.8387 23.4531 51.8387 23.8224V29H50.5816ZM60.9911 32.0682C60.778 32.0682 60.588 32.0504 60.4211 32.0149C60.2542 31.983 60.1388 31.951 60.0749 31.919L60.3945 30.8111C60.6999 30.8892 60.9698 30.9176 61.2042 30.8963C61.4385 30.875 61.6463 30.7702 61.8274 30.582C62.012 30.3974 62.1807 30.0973 62.3334 29.6818L62.5678 29.0426L59.5422 20.8182H60.9059L63.1644 27.3381H63.2496L65.5081 20.8182H66.8718L63.3988 30.1932C63.2425 30.6158 63.049 30.9656 62.8181 31.2425C62.5873 31.5231 62.3192 31.7308 62.0138 31.8658C61.712 32.0007 61.3711 32.0682 60.9911 32.0682ZM71.4619 29.1705C70.7233 29.1705 70.0752 28.9947 69.5177 28.6431C68.9637 28.2915 68.5305 27.7997 68.218 27.1676C67.909 26.5355 67.7545 25.7969 67.7545 24.9517C67.7545 24.0994 67.909 23.3555 68.218 22.7198C68.5305 22.0842 68.9637 21.5906 69.5177 21.239C70.0752 20.8874 70.7233 20.7116 71.4619 20.7116C72.2006 20.7116 72.8469 20.8874 73.4009 21.239C73.9584 21.5906 74.3916 22.0842 74.7006 22.7198C75.0131 23.3555 75.1693 24.0994 75.1693 24.9517C75.1693 25.7969 75.0131 26.5355 74.7006 27.1676C74.3916 27.7997 73.9584 28.2915 73.4009 28.6431C72.8469 28.9947 72.2006 29.1705 71.4619 29.1705ZM71.4619 28.0412C72.023 28.0412 72.4847 27.8974 72.8469 27.6097C73.2091 27.3221 73.4772 26.9439 73.6512 26.4751C73.8252 26.0064 73.9122 25.4986 73.9122 24.9517C73.9122 24.4048 73.8252 23.8952 73.6512 23.4229C73.4772 22.9506 73.2091 22.5689 72.8469 22.2777C72.4847 21.9865 72.023 21.8409 71.4619 21.8409C70.9009 21.8409 70.4392 21.9865 70.077 22.2777C69.7148 22.5689 69.4467 22.9506 69.2727 23.4229C69.0986 23.8952 69.0116 24.4048 69.0116 24.9517C69.0116 25.4986 69.0986 26.0064 69.2727 26.4751C69.4467 26.9439 69.7148 27.3221 70.077 27.6097C70.4392 27.8974 70.9009 28.0412 71.4619 28.0412ZM82.1445 25.6548V20.8182H83.4016V29H82.1445V27.6151H82.0593C81.8675 28.0305 81.5692 28.3839 81.1644 28.6751C80.7596 28.9627 80.2482 29.1065 79.6303 29.1065C79.1189 29.1065 78.6644 28.9947 78.2667 28.771C77.8689 28.5437 77.5564 28.2028 77.3292 27.7482C77.1019 27.2901 76.9883 26.7131 76.9883 26.017V20.8182H78.2454V25.9318C78.2454 26.5284 78.4123 27.0043 78.7461 27.3594C79.0834 27.7145 79.5131 27.892 80.0351 27.892C80.3476 27.892 80.6655 27.8121 80.9886 27.6523C81.3153 27.4925 81.5888 27.2475 81.8089 26.9173C82.0327 26.587 82.1445 26.1662 82.1445 25.6548ZM85.6041 29V20.8182H86.8186V22.054H86.9038C87.0529 21.6491 87.3228 21.3207 87.7135 21.0685C88.1041 20.8164 88.5444 20.6903 89.0345 20.6903C89.1268 20.6903 89.2422 20.6921 89.3807 20.6957C89.5192 20.6992 89.624 20.7045 89.695 20.7116V21.9901C89.6524 21.9794 89.5547 21.9634 89.402 21.9421C89.2529 21.9173 89.0948 21.9048 88.9279 21.9048C88.5302 21.9048 88.1751 21.9883 87.8626 22.1552C87.5537 22.3185 87.3086 22.5458 87.1275 22.837C86.95 23.1246 86.8612 23.4531 86.8612 23.8224V29H85.6041ZM98.6343 29.1705C97.8459 29.1705 97.1659 28.9964 96.5942 28.6484C96.026 28.2969 95.5874 27.8068 95.2785 27.1783C94.9731 26.5462 94.8204 25.8111 94.8204 24.973C94.8204 24.1349 94.9731 23.3963 95.2785 22.7571C95.5874 22.1143 96.0171 21.6136 96.5675 21.255C97.1215 20.8928 97.7678 20.7116 98.5064 20.7116C98.9326 20.7116 99.3534 20.7827 99.7689 20.9247C100.184 21.0668 100.563 21.2976 100.903 21.6172C101.244 21.9332 101.516 22.3523 101.718 22.8743C101.921 23.3963 102.022 24.0391 102.022 24.8026V25.3352H95.7153V24.2486H100.744C100.744 23.7869 100.651 23.375 100.467 23.0128C100.286 22.6506 100.026 22.3647 99.689 22.1552C99.3552 21.9457 98.961 21.8409 98.5064 21.8409C98.0057 21.8409 97.5725 21.9652 97.2067 22.2138C96.8445 22.4588 96.5658 22.7784 96.3704 23.1726C96.1751 23.5668 96.0775 23.9893 96.0775 24.4403V25.1648C96.0775 25.7827 96.184 26.3065 96.3971 26.7362C96.6137 27.1623 96.9138 27.4872 97.2973 27.7109C97.6808 27.9311 98.1265 28.0412 98.6343 28.0412C98.9645 28.0412 99.2628 27.995 99.5292 27.9027C99.7991 27.8068 100.032 27.6648 100.227 27.4766C100.422 27.2848 100.573 27.0469 100.68 26.7628L101.894 27.1037C101.766 27.5156 101.552 27.8778 101.25 28.1903C100.948 28.4993 100.575 28.7408 100.131 28.9148C99.6872 29.0852 99.1883 29.1705 98.6343 29.1705ZM103.834 29V20.8182H105.049V22.0966H105.155C105.326 21.6598 105.601 21.3207 105.981 21.0792C106.361 20.8342 106.817 20.7116 107.35 20.7116C107.89 20.7116 108.339 20.8342 108.698 21.0792C109.06 21.3207 109.342 21.6598 109.545 22.0966H109.63C109.839 21.674 110.154 21.3384 110.573 21.0898C110.992 20.8377 111.494 20.7116 112.08 20.7116C112.812 20.7116 113.41 20.9407 113.875 21.3988C114.34 21.8533 114.573 22.5618 114.573 23.5241V29H113.316V23.5241C113.316 22.9205 113.151 22.489 112.821 22.2298C112.49 21.9705 112.101 21.8409 111.654 21.8409C111.079 21.8409 110.633 22.0149 110.317 22.3629C110.001 22.7074 109.843 23.1442 109.843 23.6733V29H108.564V23.3963C108.564 22.9311 108.414 22.5565 108.112 22.2724C107.81 21.9847 107.421 21.8409 106.945 21.8409C106.618 21.8409 106.313 21.9279 106.029 22.1019C105.748 22.2759 105.521 22.5174 105.347 22.8263C105.177 23.1317 105.091 23.4851 105.091 23.8864V29H103.834ZM119.179 29.1918C118.661 29.1918 118.19 29.0941 117.768 28.8988C117.345 28.6999 117.009 28.4141 116.761 28.0412C116.512 27.6648 116.388 27.2102 116.388 26.6776C116.388 26.2088 116.48 25.8288 116.665 25.5376C116.85 25.2429 117.096 25.0121 117.405 24.8452C117.714 24.6783 118.055 24.554 118.428 24.4723C118.804 24.3871 119.183 24.3196 119.563 24.2699C120.06 24.206 120.463 24.158 120.772 24.1261C121.084 24.0906 121.312 24.032 121.454 23.9503C121.599 23.8686 121.672 23.7266 121.672 23.5241V23.4815C121.672 22.956 121.528 22.5476 121.241 22.2564C120.956 21.9652 120.525 21.8196 119.946 21.8196C119.346 21.8196 118.876 21.951 118.535 22.2138C118.194 22.4766 117.954 22.7571 117.815 23.0554L116.622 22.6293C116.835 22.1321 117.119 21.745 117.475 21.468C117.833 21.1875 118.224 20.9922 118.646 20.8821C119.073 20.7685 119.492 20.7116 119.904 20.7116C120.166 20.7116 120.468 20.7436 120.809 20.8075C121.154 20.8679 121.486 20.994 121.805 21.1857C122.128 21.3775 122.396 21.6669 122.61 22.054C122.823 22.4411 122.929 22.9595 122.929 23.6094V29H121.672V27.892H121.608C121.523 28.0696 121.381 28.2596 121.182 28.462C120.983 28.6644 120.719 28.8366 120.388 28.9787C120.058 29.1207 119.655 29.1918 119.179 29.1918ZM119.371 28.0625C119.868 28.0625 120.287 27.9648 120.628 27.7695C120.972 27.5742 121.232 27.3221 121.406 27.0131C121.583 26.7042 121.672 26.3793 121.672 26.0384V24.8878C121.619 24.9517 121.502 25.0103 121.32 25.0636C121.143 25.1133 120.937 25.1577 120.703 25.1967C120.472 25.2322 120.246 25.2642 120.026 25.2926C119.809 25.3175 119.634 25.3388 119.499 25.3565C119.172 25.3991 118.867 25.4684 118.583 25.5643C118.302 25.6566 118.075 25.7969 117.901 25.9851C117.73 26.1697 117.645 26.4219 117.645 26.7415C117.645 27.1783 117.807 27.5085 118.13 27.7322C118.456 27.9524 118.87 28.0625 119.371 28.0625ZM125.124 29V20.8182H126.381V29H125.124ZM125.763 19.4545C125.518 19.4545 125.306 19.3711 125.129 19.2042C124.955 19.0373 124.868 18.8366 124.868 18.6023C124.868 18.3679 124.955 18.1673 125.129 18.0004C125.306 17.8335 125.518 17.75 125.763 17.75C126.008 17.75 126.217 17.8335 126.391 18.0004C126.569 18.1673 126.658 18.3679 126.658 18.6023C126.658 18.8366 126.569 19.0373 126.391 19.2042C126.217 19.3711 126.008 19.4545 125.763 19.4545ZM129.84 18.0909V29H128.583V18.0909H129.84Z" fill="#919BA7"/>
<path d="M426 1H508C511.314 1 514 3.68629 514 7V41C514 44.3137 511.314 47 508 47H426V1Z" fill="#437EF7"/>
<path d="M451.005 21.0898C450.955 20.6246 450.745 20.2624 450.376 20.0032C450.01 19.744 449.534 19.6143 448.949 19.6143C448.537 19.6143 448.183 19.6765 447.888 19.8008C447.594 19.9251 447.368 20.0937 447.212 20.3068C447.056 20.5199 446.976 20.7631 446.972 21.0366C446.972 21.2638 447.024 21.4609 447.127 21.6278C447.233 21.7947 447.377 21.9368 447.558 22.054C447.739 22.1676 447.94 22.2635 448.16 22.3416C448.38 22.4197 448.602 22.4854 448.826 22.5387L449.849 22.7944C450.261 22.8903 450.657 23.0199 451.037 23.1832C451.42 23.3466 451.763 23.5526 452.065 23.8011C452.37 24.0497 452.612 24.3498 452.789 24.7013C452.967 25.0529 453.055 25.4648 453.055 25.9371C453.055 26.5763 452.892 27.1392 452.565 27.6257C452.239 28.1087 451.766 28.4869 451.148 28.7603C450.534 29.0302 449.79 29.1651 448.917 29.1651C448.068 29.1651 447.331 29.0337 446.706 28.771C446.085 28.5082 445.598 28.1246 445.246 27.6204C444.898 27.1161 444.71 26.5018 444.682 25.7773H446.626C446.654 26.1573 446.772 26.4734 446.978 26.7255C447.184 26.9776 447.452 27.1658 447.782 27.2901C448.116 27.4144 448.489 27.4766 448.901 27.4766C449.33 27.4766 449.707 27.4126 450.03 27.2848C450.357 27.1534 450.612 26.9723 450.797 26.7415C450.982 26.5071 451.076 26.2337 451.079 25.9212C451.076 25.6371 450.992 25.4027 450.829 25.218C450.665 25.0298 450.436 24.8736 450.142 24.7493C449.85 24.6214 449.51 24.5078 449.119 24.4084L447.878 24.0888C446.979 23.858 446.269 23.5082 445.747 23.0394C445.229 22.5671 444.969 21.9403 444.969 21.1591C444.969 20.5163 445.143 19.9535 445.491 19.4705C445.843 18.9876 446.321 18.6129 446.924 18.3466C447.528 18.0767 448.212 17.9418 448.975 17.9418C449.749 17.9418 450.428 18.0767 451.01 18.3466C451.596 18.6129 452.056 18.984 452.39 19.4599C452.723 19.9322 452.896 20.4755 452.906 21.0898H451.005ZM459.947 25.5589V20.8182H461.875V29H460.005V27.5458H459.92C459.736 28.0039 459.432 28.3786 459.009 28.6697C458.59 28.9609 458.074 29.1065 457.459 29.1065C456.923 29.1065 456.449 28.9876 456.037 28.7496C455.629 28.5082 455.309 28.1584 455.078 27.7003C454.847 27.2386 454.732 26.6811 454.732 26.0277V20.8182H456.66V25.7294C456.66 26.2479 456.802 26.6598 457.086 26.9652C457.37 27.2706 457.743 27.4233 458.205 27.4233C458.489 27.4233 458.764 27.354 459.031 27.2156C459.297 27.0771 459.515 26.8711 459.686 26.5977C459.86 26.3207 459.947 25.9744 459.947 25.5589ZM463.943 29V18.0909H465.871V22.1712H465.951C466.051 21.9723 466.191 21.761 466.372 21.5373C466.553 21.31 466.798 21.1165 467.107 20.9567C467.416 20.7933 467.81 20.7116 468.29 20.7116C468.922 20.7116 469.492 20.8732 470 21.1964C470.511 21.516 470.916 21.9901 471.214 22.6186C471.516 23.2436 471.667 24.0107 471.667 24.9197C471.667 25.8182 471.52 26.5817 471.225 27.2102C470.93 27.8388 470.529 28.3182 470.021 28.6484C469.513 28.9787 468.938 29.1438 468.295 29.1438C467.826 29.1438 467.438 29.0657 467.129 28.9094C466.82 28.7532 466.571 28.565 466.383 28.3448C466.198 28.1211 466.054 27.9098 465.951 27.7109H465.839V29H463.943ZM465.834 24.9091C465.834 25.4382 465.909 25.9016 466.058 26.2994C466.211 26.6971 466.429 27.0078 466.713 27.2315C467.001 27.4517 467.349 27.5618 467.757 27.5618C468.183 27.5618 468.54 27.4482 468.828 27.2209C469.115 26.9901 469.332 26.6758 469.478 26.2781C469.627 25.8768 469.701 25.4205 469.701 24.9091C469.701 24.4013 469.629 23.9503 469.483 23.5561C469.337 23.1619 469.121 22.853 468.833 22.6293C468.545 22.4055 468.187 22.2937 467.757 22.2937C467.345 22.2937 466.995 22.402 466.708 22.6186C466.42 22.8352 466.202 23.1388 466.053 23.5295C465.907 23.9201 465.834 24.38 465.834 24.9091ZM473.306 29V20.8182H475.149V22.2085H475.245C475.416 21.7397 475.698 21.3739 476.092 21.1112C476.486 20.8448 476.957 20.7116 477.504 20.7116C478.058 20.7116 478.525 20.8466 478.905 21.1165C479.288 21.3828 479.558 21.7468 479.714 22.2085H479.799C479.981 21.7539 480.286 21.3917 480.716 21.1218C481.149 20.8484 481.662 20.7116 482.255 20.7116C483.008 20.7116 483.622 20.9496 484.098 21.4254C484.574 21.9013 484.812 22.5955 484.812 23.5082V29H482.878V23.8065C482.878 23.2987 482.743 22.9276 482.473 22.6932C482.204 22.4553 481.873 22.3363 481.483 22.3363C481.017 22.3363 480.653 22.4819 480.391 22.7731C480.131 23.0607 480.002 23.4354 480.002 23.897V29H478.111V23.7266C478.111 23.304 477.983 22.9666 477.727 22.7145C477.475 22.4624 477.145 22.3363 476.737 22.3363C476.46 22.3363 476.207 22.4073 475.98 22.5494C475.753 22.6879 475.572 22.8849 475.437 23.1406C475.302 23.3928 475.234 23.6875 475.234 24.0249V29H473.306ZM486.768 29V20.8182H488.696V29H486.768ZM487.738 19.657C487.432 19.657 487.169 19.5558 486.949 19.3533C486.729 19.1474 486.619 18.9006 486.619 18.6129C486.619 18.3217 486.729 18.0749 486.949 17.8725C487.169 17.6665 487.432 17.5636 487.738 17.5636C488.047 17.5636 488.309 17.6665 488.526 17.8725C488.746 18.0749 488.856 18.3217 488.856 18.6129C488.856 18.9006 488.746 19.1474 488.526 19.3533C488.309 19.5558 488.047 19.657 487.738 19.657ZM494.765 20.8182V22.3097H490.061V20.8182H494.765ZM491.223 18.858H493.151V26.5391C493.151 26.7983 493.19 26.9972 493.268 27.1357C493.35 27.2706 493.456 27.3629 493.588 27.4126C493.719 27.4624 493.865 27.4872 494.024 27.4872C494.145 27.4872 494.255 27.4783 494.355 27.4606C494.458 27.4428 494.536 27.4268 494.589 27.4126L494.914 28.9201C494.811 28.9556 494.664 28.9947 494.472 29.0373C494.284 29.0799 494.053 29.1048 493.779 29.1119C493.296 29.1261 492.861 29.0533 492.474 28.8935C492.087 28.7301 491.78 28.478 491.553 28.1371C491.329 27.7962 491.219 27.37 491.223 26.8587V18.858Z" fill="white"/>
</g>
</g>
<defs>
<filter id="filter0_d_8164_13432" x="0" y="0" width="516" height="50" filterUnits="userSpaceOnUse" color-interpolation-filters="sRGB">
<feFlood flood-opacity="0" result="BackgroundImageFix"/>
<feColorMatrix in="SourceAlpha" type="matrix" values="0 0 0 0 0 0 0 0 0 0 0 0 0 0 0 0 0 0 127 0" result="hardAlpha"/>
<feOffset dy="1"/>
<feGaussianBlur stdDeviation="1"/>
<feComposite in2="hardAlpha" operator="out"/>
<feColorMatrix type="matrix" values="0 0 0 0 0.0627451 0 0 0 0 0.0941176 0 0 0 0 0.156863 0 0 0 0.04 0"/>
<feBlend mode="normal" in2="BackgroundImageFix" result="effect1_dropShadow_8164_13432"/>
<feBlend mode="normal" in="SourceGraphic" in2="effect1_dropShadow_8164_13432" result="shape"/>
</filter>
<clipPath id="clip0_8164_13432">
<rect x="2" y="1" width="512" height="46" rx="6" fill="white"/>
</clipPath>
</defs>
</svg>
