<svg width="24" height="24" viewBox="0 0 24 24" fill="none" xmlns="http://www.w3.org/2000/svg">
<path fill-rule="evenodd" clip-rule="evenodd" d="M6.8968 21.9307C6.55215 21.9157 5.68567 21.764 4.80764 21.5332C3.93644 21.3082 3.34128 21.0078 3.34128 21.0078C3.01381 20.8438 2.8943 20.5851 2.84841 20.3178C2.86241 20.323 2.73746 19.4783 2.73746 17.8444C2.73746 16.604 2.8048 15.9394 2.83558 15.7295C2.86858 15.5085 2.98004 15.3275 3.27744 15.3412C3.57487 15.3552 3.9792 15.3481 4.93011 15.5141C6.06403 15.7167 6.61966 15.8878 6.88935 15.9771C7.13326 16.0612 7.39006 16.245 7.43968 16.5892C7.43968 16.5892 7.57102 17.4938 7.56906 18.8653C7.571 19.9754 7.4879 21.0752 7.45009 21.4308C7.41484 21.7601 7.24145 21.9458 6.8968 21.9307ZM12.0306 18.1162C12.0304 17.92 11.9474 17.7372 11.7876 17.5925L8.84994 14.8738C8.51286 14.5403 8.11177 14.3324 7.62377 14.2354C7.62377 14.2354 6.51548 13.9772 4.86565 13.7162C3.21579 13.4552 2.78494 13.4847 2.78494 13.4847C1.32222 13.4847 1.2695 14.9567 1.2544 15.1053C1.21827 15.4606 1.13232 16.4021 1.13232 17.7128C1.13232 19.2596 1.20205 20.3314 1.28623 20.9866C1.41419 21.9865 2.22792 22.4554 2.60247 22.633C2.69741 22.6778 3.71375 23.0839 4.74432 23.3838C5.43888 23.5863 6.55186 23.8823 7.07326 23.9601C7.24458 23.986 8.25173 24.1493 8.72753 23.554L11.8492 19.7343C11.9786 19.5574 12.0306 19.4854 12.0306 19.2146V18.1162ZM18.8534 12.5444C18.4106 12.502 17.9652 12.4929 17.521 12.517L10.5001 13.1373C10.5001 13.1373 10.0347 13.2043 9.76953 13.5381C9.56445 13.7964 9.52132 14.0119 9.52132 14.0119C9.61421 14.099 9.65176 14.1347 9.70294 14.179L12.4754 16.8479C12.7854 17.1352 12.9653 17.4147 12.9653 17.833V19.3363C12.9653 19.6036 12.9409 19.8282 12.7835 20.0298L11.2966 21.9362L12.7926 22.4839C13.3603 22.6605 13.8875 22.6554 14.4801 22.5703L20.92 21.1749C20.92 21.1749 22.0813 20.8833 22.0815 19.8422V16.1385C22.0815 16.067 22.0376 16.0055 21.9586 16.0206L17.8464 16.7835C17.6929 16.8129 17.5968 16.937 17.5968 17.0761V18.8702C17.5968 18.9774 17.7289 19.0638 17.8464 19.0389L19.1349 18.755C19.2019 18.7376 19.2537 18.784 19.2563 18.8702V19.449C19.2502 19.5681 19.151 19.6503 19.0114 19.6805L17.553 19.9758C17.5542 19.9715 16.5742 20.2113 16.5742 19.223V16.9347C16.5742 15.9361 17.3413 15.835 17.3413 15.835L21.869 15.0111C21.987 14.9901 22.0815 14.8914 22.0815 14.7846V13.8525C22.0772 12.8233 21.0244 12.7596 21.0244 12.7596L18.8534 12.5444ZM10.4382 2.83558C12.1222 2.90319 13.3987 4.41252 13.3111 6.24803C13.214 8.0783 11.7545 9.53817 10.1321 9.47511C8.44851 9.40748 7.22819 7.88335 7.31536 6.04817C7.41251 4.21793 8.81583 2.77252 10.4382 2.83558ZM17.2219 7.12886C17.2909 5.87743 18.237 4.88835 19.3538 4.92845C20.4156 4.97346 21.2635 6.03601 21.2067 7.24676C21.1382 8.5018 20.1773 9.45325 19.0629 9.41974C17.9983 9.36776 17.1656 8.34356 17.2219 7.12886ZM22.8674 7.29242C22.8644 4.82225 20.9171 2.83598 18.5203 2.83598C17.1212 2.83598 15.8518 3.53489 15.0304 4.57226C14.3993 1.93552 12.0672 -0.00729417 9.2751 2.05861e-05C5.94287 0.0088144 3.26381 2.72623 3.27493 6.07702C3.28609 9.46183 5.97951 12.2119 9.2751 12.2025C9.46491 12.2004 18.5463 11.6247 18.5203 11.6242C21.1376 11.4109 22.8807 9.70515 22.8674 7.29242Z" fill="white"/>
</svg>
